# Blender 3.3.4
# www.blender.org
mtllib Blade3.mtl
o Blade1.001
v 0.028032 1.647595 -0.262405
v 0.028032 -1.577190 -0.262405
v 0.028032 -1.577190 0.270314
v -0.028032 1.647595 -0.262405
v -0.028032 -1.577190 -0.262405
v -0.028032 -1.577190 0.270314
v 0.028032 1.240021 0.270314
v 0.028032 1.647595 -0.137259
v 0.028032 1.395993 0.239289
v 0.028032 1.528219 0.150939
v 0.028032 1.616570 0.018712
v -0.028032 1.647595 -0.137259
v -0.028032 1.240021 0.270314
v -0.028032 1.616570 0.018712
v -0.028032 1.528219 0.150939
v -0.028032 1.395993 0.239289
vn -0.0000 -1.0000 -0.0000
vn 1.0000 -0.0000 -0.0000
vn -0.0000 1.0000 -0.0000
vn -0.0000 -0.0000 1.0000
vn -0.0000 -0.0000 -1.0000
vn -0.0000 -0.1951 -0.9808
vn -0.0000 -0.5556 -0.8315
vn -0.0000 -0.8315 -0.5556
vn -0.0000 -0.9808 -0.1951
vn -1.0000 -0.0000 -0.0000
vt 0.625000 0.500000
vt 0.375000 0.500000
vt 0.375000 0.750000
vt 0.875000 0.500000
vt 0.625000 0.250000
vt 0.125000 0.500000
vt 0.375000 0.250000
vt 0.375000 0.000000
vt 0.125000 0.750000
vt 0.375000 1.000000
vt 0.593403 0.750000
vt 0.625000 0.558730
vt 0.605495 0.750000
vt 0.605495 0.735440
vt 0.625000 0.750000
vt 0.615746 0.693978
vt 0.625000 0.631926
vt 0.622595 0.631926
vt 0.625000 0.191270
vt 0.875000 0.558730
vt 0.593403 0.000000
vt 0.593403 1.000000
vt 0.622595 0.118074
vt 0.875000 0.631926
vt 0.615746 0.056022
vt 0.625000 1.000000
vt 0.875000 0.750000
vt 0.605495 0.014560
vt 0.605495 1.000000
s 0
usemtl Material
f 1/1/1 8/12/1 12/20/1 4/4/1
f 6/8/2 5/7/2 4/5/2 12/19/2 14/23/2 15/25/2 16/28/2 13/21/2
f 5/6/3 6/9/3 3/3/3 2/2/3
f 5/7/4 2/2/4 1/1/4 4/5/4
f 3/3/5 6/10/5 13/22/5 7/11/5
f 7/11/6 13/22/6 16/29/6 9/13/6
f 9/13/7 16/29/7 15/26/7 10/15/7
f 10/15/8 15/27/8 14/24/8 11/17/8
f 11/17/9 14/24/9 12/20/9 8/12/9
f 2/2/10 3/3/10 7/11/10 9/14/10 10/16/10 11/18/10 8/12/10 1/1/10
