# Blender 3.3.4
# www.blender.org
mtllib Hilt3.mtl
o Hilt1.001
v -0.153455 -0.041365 0.486986
v -0.096290 -0.065044 0.544151
v -0.153455 -0.133766 0.394585
v -0.096290 -0.190932 0.418264
v -0.153455 0.133766 0.394585
v -0.096290 0.190931 0.418264
v -0.153455 0.041365 0.486986
v -0.096290 0.065044 0.544151
v -0.153455 -0.133766 -0.394585
v -0.096290 -0.190932 -0.418264
v -0.153455 -0.041366 -0.486986
v -0.096290 -0.065044 -0.544151
v -0.153455 0.041365 -0.486986
v -0.096290 0.065044 -0.544151
v -0.153455 0.133766 -0.394585
v -0.096290 0.190931 -0.418264
v 0.153455 -0.133766 0.394585
v 0.096290 -0.190932 0.418264
v 0.153455 -0.041365 0.486986
v 0.096290 -0.065044 0.544151
v 0.153455 0.041365 0.486986
v 0.096290 0.065044 0.544151
v 0.153455 0.133766 0.394585
v 0.096290 0.190931 0.418264
v 0.153455 -0.041366 -0.486986
v 0.096290 -0.065044 -0.544151
v 0.153455 -0.133766 -0.394585
v 0.096290 -0.190932 -0.418264
v 0.153455 0.133766 -0.394585
v 0.096290 0.190931 -0.418264
v 0.153455 0.041365 -0.486986
v 0.096290 0.065044 -0.544151
vn -1.0000 -0.0000 -0.0000
vn -0.0000 -0.7071 -0.7071
vn -0.0000 -1.0000 -0.0000
vn -0.0000 0.7071 -0.7071
vn -0.0000 -0.0000 -1.0000
vn 1.0000 -0.0000 -0.0000
vn -0.0000 -0.0000 1.0000
vn -0.0000 1.0000 -0.0000
vn -0.0000 0.7071 0.7071
vn 0.7071 -0.5000 -0.5000
vn -0.7071 -0.5000 -0.5000
vn -0.7071 0.5000 -0.5000
vn 0.7071 0.5000 -0.5000
vn -0.7071 -0.5000 0.5000
vn 0.7071 -0.5000 0.5000
vn 0.7071 0.5000 0.5000
vn -0.7071 0.5000 0.5000
vn -0.7071 -0.7071 -0.0000
vn 0.7071 -0.7071 -0.0000
vn -0.7071 -0.0000 0.7071
vn -0.7071 -0.0000 -0.7071
vn -0.7071 0.7071 -0.0000
vn 0.7071 -0.0000 0.7071
vn 0.7071 0.7071 -0.0000
vn 0.7071 -0.0000 -0.7071
vn -0.0000 -0.7071 0.7071
vt 0.472919 0.013132
vt 0.457417 0.953435
vt 0.457417 0.000000
vt 0.171565 0.750000
vt 0.412425 0.034358
vt 0.375000 0.028918
vt 0.171565 0.721082
vt 0.587574 0.034358
vt 0.828435 0.721082
vt 0.625000 0.953435
vt 0.625000 0.028918
vt 0.527081 0.013132
vt 0.542583 0.953435
vt 0.542583 0.000000
vt 0.412426 0.215642
vt 0.171565 0.528918
vt 0.375000 0.221082
vt 0.472919 0.236868
vt 0.171565 0.500000
vt 0.457417 0.250000
vt 0.457417 0.296565
vt 0.527081 0.236868
vt 0.542583 0.250000
vt 0.542583 0.296565
vt 0.587574 0.215642
vt 0.625000 0.296565
vt 0.828435 0.528918
vt 0.625000 0.221082
vt 0.412426 0.715642
vt 0.375000 0.721082
vt 0.328435 0.721082
vt 0.472919 0.736868
vt 0.457417 0.750000
vt 0.457417 0.796565
vt 0.328435 0.750000
vt 0.527081 0.736868
vt 0.542583 0.750000
vt 0.542583 0.796565
vt 0.587574 0.715642
vt 0.625000 0.796565
vt 0.625000 0.721082
vt 0.671565 0.721082
vt 0.472919 0.513132
vt 0.328435 0.500000
vt 0.457417 0.500000
vt 0.457417 0.453435
vt 0.412426 0.534358
vt 0.375000 0.528918
vt 0.328435 0.528918
vt 0.587574 0.534358
vt 0.625000 0.453435
vt 0.625000 0.528918
vt 0.671565 0.528918
vt 0.527081 0.513132
vt 0.542583 0.500000
vt 0.542583 0.453435
s 0
usemtl Material
f 1/1/1 7/12/1 5/8/1 15/25/1 13/22/1 11/18/1 9/15/1 3/5/1
f 26/44/2 28/49/2 10/16/2 12/19/2
f 10/16/3 28/49/3 18/31/3 4/7/3
f 14/24/4 16/26/4 30/51/4 32/56/4
f 12/21/5 14/24/5 32/56/5 26/46/5
f 25/43/6 31/54/6 29/50/6 23/39/6 21/36/6 19/32/6 17/29/6 27/47/6
f 20/34/7 22/38/7 8/13/7 2/2/7
f 30/53/8 16/27/8 6/9/8 24/42/8
f 22/38/9 24/40/9 6/10/9 8/13/9
f 27/47/10 28/48/10 26/45/10 25/43/10
f 11/18/11 12/20/11 10/17/11 9/15/11
f 15/25/12 16/28/12 14/23/12 13/22/12
f 31/54/13 32/55/13 30/52/13 29/50/13
f 3/5/14 4/6/14 2/3/14 1/1/14
f 19/32/15 20/33/15 18/30/15 17/29/15
f 23/39/16 24/41/16 22/37/16 21/36/16
f 7/12/17 8/14/17 6/11/17 5/8/17
f 9/15/18 10/17/18 4/6/18 3/5/18
f 17/29/19 18/31/19 28/49/19 27/47/19
f 8/14/20 7/12/20 1/1/20 2/3/20
f 12/21/21 11/18/21 13/22/21 14/24/21
f 16/28/22 15/25/22 5/8/22 6/11/22
f 21/36/23 22/38/23 20/34/23 19/32/23
f 29/50/24 30/53/24 24/42/24 23/39/24
f 25/43/25 26/46/25 32/56/25 31/54/25
f 2/4/26 4/7/26 18/31/26 20/35/26
