# Blender 3.3.4
# www.blender.org
mtllib Hilt2.mtl
o Hilt2
v -0.126531 -0.157433 0.448680
v -0.126531 0.157432 0.448680
v -0.126531 -0.157433 -0.448680
v -0.126531 0.157432 -0.448680
v 0.126531 -0.157433 0.448680
v 0.126531 0.157432 0.448680
v 0.126531 -0.157433 -0.448680
v 0.126531 0.157432 -0.448680
v -0.126531 -0.000000 0.530420
v -0.126531 -0.000000 -0.530420
v 0.126531 -0.000000 -0.530420
v 0.126531 -0.000000 0.530420
vn -1.0000 -0.0000 -0.0000
vn -0.0000 0.4608 -0.8875
vn 1.0000 -0.0000 -0.0000
vn -0.0000 0.4608 0.8875
vn -0.0000 -1.0000 -0.0000
vn -0.0000 1.0000 -0.0000
vn -0.0000 -0.4608 0.8875
vn -0.0000 -0.4608 -0.8875
vt 0.125000 0.750000
vt 0.375000 1.000000
vt 0.375000 0.000000
vt 0.625000 0.000000
vt 0.625000 1.000000
vt 0.875000 0.750000
vt 0.125000 0.500000
vt 0.375000 0.250000
vt 0.625000 0.250000
vt 0.875000 0.500000
vt 0.375000 0.750000
vt 0.625000 0.750000
vt 0.375000 0.500000
vt 0.625000 0.500000
vt 0.500000 1.000000
vt 0.500000 0.000000
vt 0.500000 0.250000
vt 0.500000 0.500000
vt 0.500000 0.750000
s 0
usemtl Material
f 9/16/1 2/4/1 4/9/1 10/17/1
f 10/17/2 4/9/2 8/14/2 11/18/2
f 11/18/3 8/14/3 6/12/3 12/19/3
f 12/19/4 6/12/4 2/5/4 9/15/4
f 3/7/5 7/13/5 5/11/5 1/1/5
f 8/14/6 4/10/6 2/6/6 6/12/6
f 5/11/7 12/19/7 9/15/7 1/2/7
f 7/13/3 11/18/3 12/19/3 5/11/3
f 3/8/8 10/17/8 11/18/8 7/13/8
f 1/3/1 9/16/1 10/17/1 3/8/1
