# Blender 3.3.4
# www.blender.org
mtllib Handle1.mtl
o Handle1
v -0.000000 0.495334 0.095925
v -0.000000 -0.495335 0.095925
v -0.018714 0.495334 0.094082
v -0.018714 -0.495335 0.094082
v -0.036709 0.495334 0.088623
v -0.036709 -0.495335 0.088623
v -0.053293 0.495334 0.079759
v -0.053293 -0.495335 0.079759
v -0.067829 0.495334 0.067829
v -0.067829 -0.495335 0.067829
v -0.079759 0.495334 0.053293
v -0.079759 -0.495335 0.053293
v -0.088623 0.495334 0.036709
v -0.088623 -0.495335 0.036709
v -0.094082 0.495334 0.018714
v -0.094082 -0.495335 0.018714
v -0.095925 0.495334 -0.000000
v -0.095925 -0.495335 -0.000000
v -0.094082 0.495334 -0.018714
v -0.094082 -0.495335 -0.018714
v -0.088623 0.495334 -0.036709
v -0.088623 -0.495335 -0.036709
v -0.079759 0.495334 -0.053293
v -0.079759 -0.495335 -0.053293
v -0.067829 0.495334 -0.067829
v -0.067829 -0.495335 -0.067829
v -0.053293 0.495334 -0.079759
v -0.053293 -0.495335 -0.079759
v -0.036709 0.495334 -0.088623
v -0.036709 -0.495335 -0.088623
v -0.018714 0.495334 -0.094082
v -0.018714 -0.495335 -0.094082
v -0.000000 0.495334 -0.095925
v -0.000000 -0.495335 -0.095925
v 0.018714 0.495334 -0.094082
v 0.018714 -0.495335 -0.094082
v 0.036709 0.495334 -0.088623
v 0.036709 -0.495335 -0.088623
v 0.053293 0.495334 -0.079759
v 0.053293 -0.495335 -0.079759
v 0.067829 0.495334 -0.067829
v 0.067829 -0.495335 -0.067829
v 0.079759 0.495334 -0.053293
v 0.079759 -0.495335 -0.053293
v 0.088623 0.495334 -0.036709
v 0.088623 -0.495335 -0.036709
v 0.094082 0.495334 -0.018714
v 0.094082 -0.495335 -0.018714
v 0.095925 0.495334 -0.000000
v 0.095925 -0.495335 -0.000000
v 0.094082 0.495334 0.018714
v 0.094082 -0.495335 0.018714
v 0.088623 0.495334 0.036709
v 0.088623 -0.495335 0.036709
v 0.079759 0.495334 0.053293
v 0.079759 -0.495335 0.053293
v 0.067829 0.495334 0.067829
v 0.067829 -0.495335 0.067829
v 0.053293 0.495334 0.079759
v 0.053293 -0.495335 0.079759
v 0.036709 0.495334 0.088623
v 0.036709 -0.495335 0.088623
v 0.018714 0.495334 0.094082
v 0.018714 -0.495335 0.094082
vn -0.0000 -0.0000 1.0000
vn -0.1966 -0.0000 0.9805
vn -0.3855 -0.0000 0.9227
vn -0.5595 -0.0000 0.8288
vn -0.7116 -0.0000 0.7026
vn -0.8358 -0.0000 0.5490
vn -0.9271 -0.0000 0.3749
vn -0.9820 -0.0000 0.1891
vn -1.0000 -0.0000 -0.0000
vn -0.9820 -0.0000 -0.1891
vn -0.9271 -0.0000 -0.3749
vn -0.8358 -0.0000 -0.5490
vn -0.7116 -0.0000 -0.7026
vn -0.5595 -0.0000 -0.8288
vn -0.3855 -0.0000 -0.9227
vn -0.1966 -0.0000 -0.9805
vn -0.0000 -0.0000 -1.0000
vn 0.1966 -0.0000 -0.9805
vn 0.3855 -0.0000 -0.9227
vn 0.5595 -0.0000 -0.8288
vn 0.7116 -0.0000 -0.7026
vn 0.8358 -0.0000 -0.5490
vn 0.9271 -0.0000 -0.3749
vn 0.9820 -0.0000 -0.1891
vn 1.0000 -0.0000 -0.0000
vn 0.9820 -0.0000 0.1891
vn 0.9271 -0.0000 0.3749
vn 0.8358 -0.0000 0.5490
vn 0.7116 -0.0000 0.7026
vn 0.5595 -0.0000 0.8288
vn 0.3855 -0.0000 0.9227
vn -0.0000 -1.0000 -0.0000
vn 0.1966 -0.0000 0.9805
vn -0.0000 1.0000 -0.0000
vt 1.000000 0.500000
vt 0.000000 0.500000
vt 0.250000 0.490000
vt 1.000000 1.000000
vt 0.750000 0.490000
vt 0.000000 1.000000
vt 0.968750 0.500000
vt 0.296822 0.485388
vt 0.968750 1.000000
vt 0.796822 0.485388
vt 0.937500 0.500000
vt 0.341844 0.471731
vt 0.937500 1.000000
vt 0.841844 0.471731
vt 0.906250 0.500000
vt 0.383337 0.449553
vt 0.906250 1.000000
vt 0.883337 0.449553
vt 0.875000 0.500000
vt 0.419706 0.419706
vt 0.875000 1.000000
vt 0.919706 0.419706
vt 0.843750 0.500000
vt 0.449553 0.383337
vt 0.843750 1.000000
vt 0.949553 0.383337
vt 0.812500 0.500000
vt 0.471731 0.341844
vt 0.812500 1.000000
vt 0.971731 0.341844
vt 0.781250 0.500000
vt 0.485388 0.296822
vt 0.781250 1.000000
vt 0.985388 0.296822
vt 0.750000 0.500000
vt 0.490000 0.250000
vt 0.750000 1.000000
vt 0.990000 0.250000
vt 0.718750 0.500000
vt 0.485388 0.203178
vt 0.718750 1.000000
vt 0.985388 0.203178
vt 0.687500 0.500000
vt 0.471731 0.158156
vt 0.687500 1.000000
vt 0.971731 0.158156
vt 0.656250 0.500000
vt 0.449553 0.116663
vt 0.656250 1.000000
vt 0.949553 0.116663
vt 0.625000 0.500000
vt 0.419706 0.080294
vt 0.625000 1.000000
vt 0.919706 0.080294
vt 0.593750 0.500000
vt 0.383337 0.050447
vt 0.593750 1.000000
vt 0.883337 0.050447
vt 0.562500 0.500000
vt 0.341844 0.028269
vt 0.562500 1.000000
vt 0.841844 0.028269
vt 0.531250 0.500000
vt 0.296822 0.014612
vt 0.531250 1.000000
vt 0.796822 0.014612
vt 0.500000 0.500000
vt 0.250000 0.010000
vt 0.500000 1.000000
vt 0.750000 0.010000
vt 0.468750 0.500000
vt 0.203178 0.014612
vt 0.468750 1.000000
vt 0.703178 0.014612
vt 0.437500 0.500000
vt 0.158156 0.028269
vt 0.437500 1.000000
vt 0.658156 0.028269
vt 0.406250 0.500000
vt 0.116663 0.050447
vt 0.406250 1.000000
vt 0.616663 0.050447
vt 0.375000 0.500000
vt 0.080294 0.080294
vt 0.375000 1.000000
vt 0.580294 0.080294
vt 0.343750 0.500000
vt 0.050447 0.116663
vt 0.343750 1.000000
vt 0.550447 0.116663
vt 0.312500 0.500000
vt 0.028269 0.158156
vt 0.312500 1.000000
vt 0.528269 0.158156
vt 0.281250 0.500000
vt 0.014612 0.203178
vt 0.281250 1.000000
vt 0.514612 0.203178
vt 0.250000 0.500000
vt 0.010000 0.250000
vt 0.250000 1.000000
vt 0.510000 0.250000
vt 0.218750 0.500000
vt 0.014612 0.296822
vt 0.218750 1.000000
vt 0.514612 0.296822
vt 0.187500 0.500000
vt 0.028269 0.341844
vt 0.187500 1.000000
vt 0.528269 0.341844
vt 0.156250 0.500000
vt 0.050447 0.383337
vt 0.156250 1.000000
vt 0.550447 0.383337
vt 0.125000 0.500000
vt 0.080294 0.419706
vt 0.125000 1.000000
vt 0.580294 0.419706
vt 0.093750 0.500000
vt 0.116663 0.449553
vt 0.093750 1.000000
vt 0.616663 0.449553
vt 0.062500 0.500000
vt 0.158156 0.471731
vt 0.658156 0.471731
vt 0.062500 1.000000
vt 0.031250 0.500000
vt 0.203178 0.485388
vt 0.703178 0.485388
vt 0.031250 1.000000
s 1
usemtl Material
f 1/1/1 3/7/2 4/9/2 2/4/1
f 3/7/2 5/11/3 6/13/3 4/9/2
f 5/11/3 7/15/4 8/17/4 6/13/3
f 7/15/4 9/19/5 10/21/5 8/17/4
f 9/19/5 11/23/6 12/25/6 10/21/5
f 11/23/6 13/27/7 14/29/7 12/25/6
f 13/27/7 15/31/8 16/33/8 14/29/7
f 15/31/8 17/35/9 18/37/9 16/33/8
f 17/35/9 19/39/10 20/41/10 18/37/9
f 19/39/10 21/43/11 22/45/11 20/41/10
f 21/43/11 23/47/12 24/49/12 22/45/11
f 23/47/12 25/51/13 26/53/13 24/49/12
f 25/51/13 27/55/14 28/57/14 26/53/13
f 27/55/14 29/59/15 30/61/15 28/57/14
f 29/59/15 31/63/16 32/65/16 30/61/15
f 31/63/16 33/67/17 34/69/17 32/65/16
f 33/67/17 35/71/18 36/73/18 34/69/17
f 35/71/18 37/75/19 38/77/19 36/73/18
f 37/75/19 39/79/20 40/81/20 38/77/19
f 39/79/20 41/83/21 42/85/21 40/81/20
f 41/83/21 43/87/22 44/89/22 42/85/21
f 43/87/22 45/91/23 46/93/23 44/89/22
f 45/91/23 47/95/24 48/97/24 46/93/23
f 47/95/24 49/99/25 50/101/25 48/97/24
f 49/99/25 51/103/26 52/105/26 50/101/25
f 51/103/26 53/107/27 54/109/27 52/105/26
f 53/107/27 55/111/28 56/113/28 54/109/27
f 55/111/28 57/115/29 58/117/29 56/113/28
f 57/115/29 59/119/30 60/121/30 58/117/29
f 59/119/30 61/123/31 62/126/31 60/121/30
f 4/10/32 6/14/32 8/18/32 10/22/32 12/26/32 14/30/32 16/34/32 18/38/32 20/42/32 22/46/32 24/50/32 26/54/32 28/58/32 30/62/32 32/66/32 34/70/32 36/74/32 38/78/32 40/82/32 42/86/32 44/90/32 46/94/32 48/98/32 50/102/32 52/106/32 54/110/32 56/114/32 58/118/32 60/122/32 62/125/32 64/129/32 2/5/32
f 61/123/31 63/127/33 64/130/33 62/126/31
f 63/127/33 1/2/1 2/6/1 64/130/33
f 1/3/34 63/128/34 61/124/34 59/120/34 57/116/34 55/112/34 53/108/34 51/104/34 49/100/34 47/96/34 45/92/34 43/88/34 41/84/34 39/80/34 37/76/34 35/72/34 33/68/34 31/64/34 29/60/34 27/56/34 25/52/34 23/48/34 21/44/34 19/40/34 17/36/34 15/32/34 13/28/34 11/24/34 9/20/34 7/16/34 5/12/34 3/8/34
