# Blender 3.3.4
# www.blender.org
mtllib Handle3.mtl
o Cube.001
v -0.075397 -0.386697 0.075397
v -0.075397 0.386698 0.075397
v -0.075397 -0.386697 -0.075397
v -0.075397 0.386698 -0.075397
v 0.075397 -0.386697 0.075397
v 0.075397 0.386698 0.075397
v 0.075397 -0.386697 -0.075397
v 0.075397 0.386698 -0.075397
v -0.062653 -0.160667 0.062653
v -0.075397 0.000000 0.075397
v -0.062653 0.160668 0.062653
v -0.062653 0.160668 -0.062653
v -0.075397 0.000000 -0.075397
v -0.062653 -0.160667 -0.062653
v 0.062653 0.160668 -0.062653
v 0.075397 0.000000 -0.075397
v 0.062653 -0.160667 -0.062653
v 0.062653 0.160668 0.062653
v 0.075397 0.000000 0.075397
v 0.062653 -0.160667 0.062653
vn -0.9984 -0.0563 -0.0000
vn -0.0000 -0.0563 -0.9984
vn 0.9984 -0.0563 -0.0000
vn -0.0000 -0.0563 0.9984
vn -0.0000 1.0000 -0.0000
vn -0.0000 0.0563 0.9984
vn -0.0000 -0.0791 0.9969
vn -0.0000 0.0791 0.9969
vn 0.9984 0.0563 -0.0000
vn 0.9969 -0.0791 -0.0000
vn 0.9969 0.0791 -0.0000
vn -0.0000 0.0563 -0.9984
vn -0.0000 -0.0791 -0.9969
vn -0.0000 0.0791 -0.9969
vn -0.9984 0.0563 -0.0000
vn -0.9969 -0.0791 -0.0000
vn -0.9969 0.0791 -0.0000
vt 0.375000 1.000000
vt 0.375000 0.000000
vt 0.625000 0.000000
vt 0.625000 1.000000
vt 0.875000 0.750000
vt 0.375000 0.250000
vt 0.625000 0.250000
vt 0.875000 0.500000
vt 0.375000 0.750000
vt 0.625000 0.750000
vt 0.375000 0.500000
vt 0.625000 0.500000
vt 0.437500 1.000000
vt 0.437500 0.000000
vt 0.500000 1.000000
vt 0.500000 0.000000
vt 0.562500 1.000000
vt 0.562500 0.000000
vt 0.562500 0.250000
vt 0.500000 0.250000
vt 0.437500 0.250000
vt 0.562500 0.500000
vt 0.500000 0.500000
vt 0.437500 0.500000
vt 0.562500 0.750000
vt 0.500000 0.750000
vt 0.437500 0.750000
s 0
f 11/18/1 2/3/1 4/7/1 12/19/1
f 12/19/2 4/7/2 8/12/2 15/22/2
f 15/22/3 8/12/3 6/10/3 18/25/3
f 18/25/4 6/10/4 2/4/4 11/17/4
f 8/12/5 4/8/5 2/5/5 6/10/5
f 5/9/6 20/27/6 9/13/6 1/1/6
f 20/27/7 19/26/7 10/15/7 9/13/7
f 19/26/8 18/25/8 11/17/8 10/15/8
f 7/11/9 17/24/9 20/27/9 5/9/9
f 17/24/10 16/23/10 19/26/10 20/27/10
f 16/23/11 15/22/11 18/25/11 19/26/11
f 3/6/12 14/21/12 17/24/12 7/11/12
f 14/21/13 13/20/13 16/23/13 17/24/13
f 13/20/14 12/19/14 15/22/14 16/23/14
f 1/2/15 9/14/15 14/21/15 3/6/15
f 9/14/16 10/16/16 13/20/16 14/21/16
f 10/16/17 11/18/17 12/19/17 13/20/17
