# Blender 3.3.4
# www.blender.org
mtllib Handle2.mtl
o Cube
v -0.075397 -0.386697 0.075397
v -0.075397 0.386697 0.075397
v -0.075397 -0.386697 -0.075397
v -0.075397 0.386697 -0.075397
v 0.075397 -0.386697 0.075397
v 0.075397 0.386697 0.075397
v 0.075397 -0.386697 -0.075397
v 0.075397 0.386697 -0.075397
vn -1.0000 -0.0000 -0.0000
vn -0.0000 -0.0000 -1.0000
vn 1.0000 -0.0000 -0.0000
vn -0.0000 -0.0000 1.0000
vn -0.0000 1.0000 -0.0000
vt 0.375000 0.000000
vt 0.375000 1.000000
vt 0.625000 0.000000
vt 0.625000 1.000000
vt 0.875000 0.750000
vt 0.375000 0.250000
vt 0.625000 0.250000
vt 0.875000 0.500000
vt 0.375000 0.750000
vt 0.625000 0.750000
vt 0.375000 0.500000
vt 0.625000 0.500000
s 0
f 1/1/1 2/3/1 4/7/1 3/6/1
f 3/6/2 4/7/2 8/12/2 7/11/2
f 7/11/3 8/12/3 6/10/3 5/9/3
f 5/9/4 6/10/4 2/4/4 1/2/4
f 8/12/5 4/8/5 2/5/5 6/10/5
